<svg width="16" height="16" fill="none" xmlns="http://www.w3.org/2000/svg"><path d="M12.678 6.154h-1.154c0-.49-.183-.959-.508-1.305a1.68 1.68 0 00-1.223-.541V3.077a2.8 2.8 0 012.039.902c.54.577.845 1.36.846 2.175z" fill="#fff"/><path d="M14.985 6.154h-1.153a4.463 4.463 0 00-1.185-3.045 3.92 3.92 0 00-2.854-1.263V.616c1.377.001 2.697.585 3.67 1.623.973 1.039 1.52 2.447 1.522 3.915zm-4.423 5.22l1.292-1.379a1.23 1.23 0 01.633-.363c.24-.053.489-.029.716.068l1.574.672c.232.099.43.27.57.49.14.221.215.482.215.748v3.053c0 .182-.034.361-.1.528a1.338 1.338 0 01-.289.442 1.24 1.24 0 01-.429.285c-.16.063-.33.09-.5.08C3.213 15.266.985 5.298.572 1.482A1.415 1.415 0 01.62.927C.675.748.763.583.881.443A1.21 1.21 0 011.813 0h2.812c.25 0 .494.08.7.23.208.149.368.36.46.608l.63 1.679c.09.242.113.508.064.763-.05.256-.168.49-.34.675L4.845 5.334s.716 5.373 5.716 6.04z" fill="#fff"/></svg>