<svg width="16" height="16" fill="none" xmlns="http://www.w3.org/2000/svg"><path d="M8 0C6.517 0 5.067.47 3.833 1.348a7.912 7.912 0 00-2.762 3.59 8.497 8.497 0 00-.427 4.623 8.178 8.178 0 002.053 4.096 7.368 7.368 0 003.84 2.19 7.065 7.065 0 004.333-.456 7.626 7.626 0 003.366-2.946A8.385 8.385 0 0015.5 8c0-2.122-.79-4.157-2.197-5.657C11.897.843 9.99 0 8 0zm2.906 10.59a.486.486 0 01-.129.139.454.454 0 01-.353.076.453.453 0 01-.17-.075l-2.765-2V4.375c0-.133.05-.26.137-.354a.454.454 0 01.332-.146c.124 0 .243.053.331.146a.518.518 0 01.138.354V8.2l2.343 1.695a.517.517 0 01.205.513.519.519 0 01-.069.182zm-.164-7.475a5.119 5.119 0 00-2.162-.782 5.024 5.024 0 00-2.272.253 5.28 5.28 0 00-1.964 1.242 5.718 5.718 0 00-1.298 2.004 6.034 6.034 0 00.187 4.755 5.626 5.626 0 001.451 1.88 5.197 5.197 0 002.055 1.063l-.145.785a5.939 5.939 0 01-2.36-1.2 6.423 6.423 0 01-1.671-2.145 6.887 6.887 0 01-.23-5.442c.333-.87.84-1.654 1.484-2.296a6.026 6.026 0 012.25-1.42 5.734 5.734 0 012.6-.286c.876.107 1.72.415 2.474.904l-.399.685z" fill="#fff"/></svg>