<svg xmlns="http://www.w3.org/2000/svg" width="75" height="14" fill="none"><path fill="#FED219" d="M7.868 0L9.44 4.837h5.086l-4.115 2.99 1.572 4.836-4.115-2.99-4.114 2.99 1.571-4.837-4.114-2.99h5.086L7.868 0zm15 0l1.572 4.837h5.086l-4.115 2.99 1.572 4.836-4.115-2.99-4.114 2.99 1.571-4.837-4.114-2.99h5.086L22.868 0zm15 0l1.572 4.837h5.086l-4.115 2.99 1.572 4.836-4.115-2.99-4.114 2.99 1.571-4.837-4.114-2.99h5.086L37.868 0zm15 0l1.572 4.837h5.086l-4.115 2.99 1.572 4.836-4.115-2.99-4.114 2.99 1.571-4.837-4.114-2.99h5.086L52.868 0zm15 0l1.572 4.837h5.086l-4.115 2.99 1.572 4.836-4.115-2.99-4.114 2.99 1.571-4.837-4.114-2.99h5.086L67.868 0z"/></svg>