<svg width="18" height="18" fill="none" xmlns="http://www.w3.org/2000/svg"><path d="M9.248 5.999c-1.55 0-2.814 1.348-2.814 3.001 0 1.653 1.265 3.001 2.814 3.001 1.55 0 2.814-1.348 2.814-3.001 0-1.653-1.265-3.001-2.814-3.001zM17.687 9c0-1.243.01-2.474-.055-3.715-.065-1.441-.374-2.72-1.361-3.774C15.28.455 14.084.13 12.733.06 11.568-.01 10.413.001 9.25.001 8.085 0 6.93-.011 5.767.059c-1.35.07-2.55.399-3.538 1.452C1.24 2.567.933 3.844.868 5.285.803 6.528.813 7.759.813 9c0 1.24-.01 2.474.055 3.715.065 1.441.374 2.72 1.361 3.774.99 1.055 2.187 1.382 3.538 1.452 1.165.07 2.32.058 3.483.058 1.165 0 2.32.012 3.483-.058 1.35-.07 2.55-.399 3.538-1.452.99-1.056 1.296-2.333 1.361-3.774.068-1.24.055-2.472.055-3.715zm-8.44 4.618C6.853 13.618 4.92 11.555 4.92 9s1.933-4.618 4.329-4.618 4.33 2.063 4.33 4.618c0 2.556-1.934 4.618-4.33 4.618zm4.508-8.347c-.56 0-1.012-.481-1.012-1.078 0-.597.452-1.078 1.011-1.078.56 0 1.012.481 1.012 1.078 0 .142-.026.282-.077.413a1.064 1.064 0 01-.547.584.955.955 0 01-.387.081z" fill="#fff"/></svg>