<svg width="18" height="18" fill="none" xmlns="http://www.w3.org/2000/svg"><path d="M16.343 4.162C13.813 0 8.644-1.238 4.636 1.35.734 3.937-.53 9.562 2 13.725l.21.338-.843 3.374 3.164-.9.316.226C6.22 17.55 7.695 18 9.172 18a8.26 8.26 0 004.535-1.35c3.902-2.7 5.062-8.213 2.636-12.488zm-2.214 8.663c-.422.675-.95 1.125-1.688 1.238-.422 0-.95.224-3.058-.676-1.793-.9-3.27-2.362-4.325-4.05-.632-.787-.949-1.8-1.054-2.812 0-.9.316-1.688.843-2.25.211-.225.422-.338.633-.338h.528c.21 0 .421 0 .527.45.21.563.738 1.913.738 2.025.106.113.106.338 0 .45.106.225 0 .45-.105.563-.106.112-.211.337-.317.45-.21.112-.316.337-.21.562.421.675.949 1.35 1.476 1.913.633.562 1.266 1.012 2.004 1.35.21.113.422.113.527-.112.106-.226.633-.788.844-1.013.21-.225.316-.225.527-.113l1.688.9c.21.113.422.226.527.338.106.338.106.788-.105 1.125z" fill="#fff"/></svg>